<?xml version="1.0" encoding="UTF-8" standalone="no"?>
<!-- Created with Inkscape (http://www.inkscape.org/) -->

<svg
   width="16.933332mm"
   height="16.933332mm"
   viewBox="0 0 16.933332 16.933333"
   version="1.1"
   id="svg1"
   xml:space="preserve"
   xmlns="http://www.w3.org/2000/svg"
   xmlns:svg="http://www.w3.org/2000/svg"><defs
     id="defs1" /><g
     id="layer1"
     transform="translate(0,-27.686441)"><path
       d="m 11.011398,30.08007 c -0.20449,0.238283 -0.599989,0.786331 -0.599989,1.429691 0,0.86648 0.343813,1.197908 0.898861,1.732959 0.555047,0.535051 0.898861,0.86648 1.797724,0.86648 0.667404,0 1.235933,-0.381252 1.483121,-0.578375 0.08989,-0.07148 0.134833,-0.177628 0.134833,-0.288105 0,-0.11047 -0.04495,-0.216619 -0.134833,-0.285937 -0.256176,-0.197126 -0.860661,-0.580542 -1.662894,-0.580542 -0.71909,0 -0.898863,0.173296 -0.898863,0.173296 0,0 0.179773,-0.173296 0.179773,-0.86648 0,-0.773332 -0.397746,-1.35604 -0.602237,-1.602987 -0.0719,-0.08664 -0.182019,-0.129968 -0.296624,-0.129968 -0.114593,0 -0.224715,0.04333 -0.298872,0.129968 z m -2.2943417,2.816058 c -0.8988621,0 -1.7325559,0.392081 -2.2853558,1.04411 l 1.3595282,1.310548 c 0.1393225,0.134304 0.1393225,0.355257 0,0.48956 -0.1393237,0.134305 -0.368534,0.134305 -0.5078575,0 L 6.0406954,34.54244 v 0.0023 l -2.7707403,5.757712 c -0.09438,0.197123 -0.051684,0.431074 0.107864,0.58704 0.1595481,0.155965 0.4022404,0.194958 0.6089787,0.10398 L 7.0137134,39.641701 5.8429468,38.513112 c -0.1393236,-0.134303 -0.1393236,-0.355256 0,-0.489561 0.1393236,-0.134304 0.3685329,-0.134304 0.5078565,0 l 1.3572803,1.306219 2.2516495,-1.005116 c 1.0426779,-0.465733 1.7123299,-1.473016 1.7123299,-2.58211 -0.0023,-1.572659 -1.323573,-2.846385 -2.9550062,-2.846385 z"
       id="path1"
       style="fill:#222831;fill-opacity:1;stroke-width:0.0220629" /><circle
       style="fill:#222831;fill-opacity:0;stroke:#222831;stroke-width:0.521026;stroke-dasharray:none;stroke-opacity:1"
       id="path2"
       cx="8.4666662"
       cy="36.153111"
       r="8.2061539" /></g></svg>
