<?xml version="1.0" encoding="UTF-8" standalone="no"?>
<!-- Created with Inkscape (http://www.inkscape.org/) -->

<svg
   width="16"
   height="16"
   viewBox="0 0 16 16"
   version="1.1"
   id="SVGRoot"
   sodipodi:docname="logo.svg"
   xml:space="preserve"
   inkscape:version="1.2.2 (b0a84865, 2022-12-01)"
   inkscape:export-filename="../favicon.ico.tiff"
   inkscape:export-xdpi="96"
   inkscape:export-ydpi="96"
   xmlns:inkscape="http://www.inkscape.org/namespaces/inkscape"
   xmlns:sodipodi="http://sodipodi.sourceforge.net/DTD/sodipodi-0.dtd"
   xmlns="http://www.w3.org/2000/svg"
   xmlns:svg="http://www.w3.org/2000/svg"><sodipodi:namedview
     id="namedview137"
     pagecolor="#505050"
     bordercolor="#FFFFFF"
     borderopacity="1"
     inkscape:showpageshadow="0"
     inkscape:pageopacity="0"
     inkscape:pagecheckerboard="0"
     inkscape:deskcolor="#505050"
     inkscape:document-units="px"
     showgrid="true"
     inkscape:zoom="30.271801"
     inkscape:cx="-0.80933406"
     inkscape:cy="5.7314065"
     inkscape:window-width="1920"
     inkscape:window-height="1147"
     inkscape:window-x="0"
     inkscape:window-y="25"
     inkscape:window-maximized="1"
     inkscape:current-layer="g415"
     inkscape:lockguides="true"><inkscape:grid
       type="xygrid"
       id="grid260"
       originx="0"
       originy="0" /></sodipodi:namedview><defs
     id="defs132" /><g
     inkscape:label="Capa 1"
     inkscape:groupmode="layer"
     id="layer1"
     transform="translate(0,-32.63459)"><g
       style="overflow:visible"
       id="g415"
       transform="matrix(0.02498742,0,0,0.0827698,0.05812786,20.646868)"><g
         id="g2441"
         transform="matrix(0.93614186,0,0,0.91171586,23.758411,56.787538)"><g
           style="overflow:visible;stroke:#ffffff;stroke-width:20.0498;stroke-dasharray:none;stroke-opacity:1"
           id="g1148"
           transform="matrix(0.48322571,0,0,0.13686046,323.70529,161.09687)"><path
             d="m 96,64 c 0,-17.7 14.3,-32 32,-32 h 32 c 17.7,0 32,14.3 32,32 v 160 64 160 c 0,17.7 -14.3,32 -32,32 H 128 C 110.3,480 96,465.7 96,448 V 384 H 64 C 46.3,384 32,369.7 32,352 V 288 C 14.3,288 0,273.7 0,256 0,238.3 14.3,224 32,224 v -64 c 0,-17.7 14.3,-32 32,-32 h 32 z m 448,0 v 64 h 32 c 17.7,0 32,14.3 32,32 v 64 c 17.7,0 32,14.3 32,32 0,17.7 -14.3,32 -32,32 v 64 c 0,17.7 -14.3,32 -32,32 h -32 v 64 c 0,17.7 -14.3,32 -32,32 h -32 c -17.7,0 -32,-14.3 -32,-32 V 288 224 64 c 0,-17.7 14.3,-32 32,-32 h 32 c 17.7,0 32,14.3 32,32 z M 416,224 v 64 H 224 v -64 z"
             fill="currentColor"
             id="path1132"
             style="stroke:#ffffff;stroke-width:20.0498;stroke-dasharray:none;stroke-opacity:1" /></g><g
           style="overflow:visible;fill:#ffffff;fill-opacity:1;fill-rule:evenodd;stroke:#000000;stroke-width:16;stroke-dasharray:none;stroke-opacity:1"
           id="g1206"
           transform="matrix(0.50417015,0,0,0.17403871,2.2308371,150.95478)"><path
             d="m 47.6,300.4 180.7,168.7 c 7.5,7 17.4,10.9 27.7,10.9 10.3,0 20.2,-3.9 27.7,-10.9 L 464.4,300.4 c 30.4,-28.3 47.6,-68 47.6,-109.5 v -5.8 C 512,115.2 461.5,55.6 392.6,44.1 347,36.5 300.6,51.4 268,84 L 256,96 244,84 C 211.4,51.4 165,36.5 119.4,44.1 50.5,55.6 0,115.2 0,185.1 v 5.8 c 0,41.5 17.2,81.2 47.6,109.5 z"
             fill="currentColor"
             id="path1190"
             style="fill:#ffffff;fill-opacity:1;fill-rule:evenodd;stroke:#000000;stroke-width:16;stroke-dasharray:none;stroke-opacity:1" /></g></g></g></g></svg>
